<svg width="665" height="665" viewBox="0 0 665 665" fill="none" xmlns="http://www.w3.org/2000/svg"><rect width="665" height="665" rx="140" fill="#17151f"/><g transform="translate(83.1 83.1) scale(0.75)">
<path d="M196.097 313.374C200.656 320.344 205.337 327.205 210.179 333.969C205.337 337.39 200.418 340.701 195.435 343.936C184.067 351.272 172.313 358.101 160.231 364.357C153.936 367.624 147.551 370.729 141.082 373.681C129.521 378.966 117.697 383.744 105.628 388C96.1177 374.028 87.0836 359.676 78.5639 345.009C77.0207 342.36 75.4904 339.692 73.9922 337.03C75.4132 336.573 76.8278 336.117 78.2488 335.66C95.629 329.983 112.456 323.058 128.589 314.982C131.663 313.451 134.71 311.876 137.72 310.249C151.911 302.662 165.542 294.181 178.55 284.857C184.137 294.547 189.989 304.057 196.097 313.374Z" fill="#F7F7F7"/>
<path d="M323.777 527.042C309.631 517.198 295.897 506.807 282.58 495.895C296.315 487.318 309.689 478.2 322.652 468.561C325.963 466.099 329.243 463.623 332.496 461.083C335.73 463.604 338.978 466.066 342.276 468.497C355.258 478.168 368.658 487.298 382.412 495.889C369.134 506.787 355.413 517.165 341.279 526.99C338.38 529.042 335.441 531.041 332.496 533.028C329.564 531.061 326.664 529.074 323.777 527.042Z" fill="#E11D48"/>
<path d="M440.468 247.628C431.003 264.706 420.645 281.218 409.444 297.1C408.132 298.99 406.795 300.868 405.438 302.733C395.343 316.692 384.605 330.143 373.262 343.061C382.612 351.607 392.295 359.811 402.294 367.598C407.637 371.79 413.083 375.861 418.619 379.789C428.965 387.216 439.626 394.237 450.57 400.828C456.485 404.41 462.491 407.862 468.567 411.174C479.563 417.179 490.802 422.78 502.286 427.937C492.352 445.491 479.781 461.34 465.114 474.966C452.39 468.831 439.928 462.208 427.782 455.123C421.854 451.683 416.002 448.133 410.228 444.449C399.156 437.46 388.354 430.052 377.853 422.259C370.896 417.147 364.087 411.849 357.4 406.396C348.886 399.458 340.572 392.25 332.496 384.805C324.343 392.328 315.952 399.6 307.342 406.602C300.732 411.978 294 417.218 287.139 422.266C276.491 430.168 265.548 437.659 254.321 444.738C248.688 448.32 242.978 451.786 237.211 455.129C224.891 462.318 212.243 469.024 199.332 475.255C193.828 477.891 188.279 480.444 182.659 482.919C168.404 468.124 154.791 452.718 141.861 436.739C148.657 434.058 155.377 431.222 162.019 428.239C173.734 423.005 185.218 417.308 196.432 411.174C202.296 407.972 208.089 404.66 213.793 401.207C224.962 394.507 235.822 387.364 246.373 379.809C251.704 376.008 256.938 372.099 262.095 368.074C272.312 360.126 282.201 351.78 291.73 343.061C280.189 329.925 269.258 316.203 259.021 301.98C257.838 300.353 256.687 298.733 255.549 297.093C244.194 281.025 233.719 264.288 224.164 246.991C224.087 246.85 224.004 246.708 223.926 246.567C213.915 228.447 204.907 209.678 196.991 190.356C196.978 190.324 196.959 190.292 196.946 190.26C212.655 172.519 226.389 152.959 237.764 131.972C240.349 140.093 243.158 148.124 246.155 156.052C251.672 170.59 257.87 184.82 264.718 198.664C266.467 202.226 268.268 205.775 270.126 209.279C278.073 224.48 286.824 239.211 296.309 253.408C297.646 255.44 299.022 257.459 300.411 259.465C310.364 273.913 321.07 287.809 332.503 301.067C343.858 287.899 354.506 274.113 364.389 259.761C365.842 257.665 367.276 255.549 368.678 253.421C378.091 239.32 386.785 224.718 394.7 209.627C396.61 206 398.468 202.354 400.281 198.664C407.065 184.929 413.212 170.828 418.703 156.399C421.764 148.355 424.599 140.215 427.216 131.985C438.617 152.979 452.338 172.519 468.047 190.26C467.95 190.497 467.86 190.716 467.744 190.954C459.893 210.07 450.962 228.634 441.06 246.56C440.88 246.92 440.674 247.28 440.468 247.628Z" fill="#F7F7F7"/>
<path d="M591 337.036C589.187 340.271 587.341 343.486 585.464 346.675C577.233 360.776 568.527 374.555 559.365 388.013C547.032 383.66 534.937 378.754 523.138 373.334C516.927 370.498 510.806 367.502 504.768 364.377C492.39 357.959 480.372 350.97 468.747 343.415C464.034 340.354 459.398 337.216 454.82 333.982C459.392 327.578 463.841 321.084 468.175 314.486C474.528 304.803 480.636 294.914 486.436 284.851C499.161 293.981 512.503 302.308 526.366 309.767C529.677 311.567 533.021 313.297 536.397 314.988C552.279 322.923 568.804 329.764 585.888 335.377C587.592 335.943 589.296 336.496 591 337.036Z" fill="#F7F7F7"/>
</g></svg>